<?xml version="1.0" encoding="iso-8859-1"?>
<!-- Uploaded to: SVG Repo, www.svgrepo.com, Generator: SVG Repo Mixer Tools -->
<svg version="1.1" id="Layer_1" xmlns="http://www.w3.org/2000/svg" xmlns:xlink="http://www.w3.org/1999/xlink" 
	 viewBox="0 0 495 495" xml:space="preserve">
<g>
	<polygon style="fill:#9BC9FF;" points="194.465,268.413 194.465,338.413 140.339,338.413 95.616,464.469 133.313,477.844 
		168.59,378.413 194.465,378.413 194.465,477.531 234.465,477.531 234.465,378.413 260.339,378.413 295.616,477.844 
		333.313,464.469 288.591,338.413 234.465,338.413 234.465,268.413 	"/>
	<rect x="40" y="32.156" style="fill:#00479B;" width="174.465" height="70"/>
	<polygon style="fill:#00479B;" points="451.813,70.575 354.298,118.641 354.298,251.929 451.813,299.994 495,299.994 495,70.575 	
		"/>
	<polygon style="fill:#2488FF;" points="209.464,192.156 128.591,192.156 128.591,152.156 209.464,152.156 209.464,102.156 
		64.631,102.156 64.631,268.413 209.464,268.413 	"/>
	<rect x="209.464" y="102.156" style="fill:#005ECE;" width="144.833" height="166.257"/>
	<rect y="17.156" style="fill:#003068;" width="40" height="100"/>
	<rect x="128.591" y="152.156" style="fill:#FFFFFF;" width="80.873" height="40"/>
</g>
</svg>